<svg width="34" height="34" viewBox="0 0 34 34" fill="none" xmlns="http://www.w3.org/2000/svg">
<path d="M17 2.83334C9.18848 2.83334 2.83331 9.18851 2.83331 17C2.83331 24.8115 9.18848 31.1667 17 31.1667C24.8115 31.1667 31.1666 24.8115 31.1666 17C31.1666 9.18851 24.8115 2.83334 17 2.83334ZM17 28.3333C10.7511 28.3333 5.66665 23.2489 5.66665 17C5.66665 15.3453 6.03215 13.7771 6.67106 12.359C6.88923 12.4865 7.1074 12.6168 7.31706 12.75C7.87806 13.1042 8.43765 13.4583 9.1389 13.7247C9.83873 13.9896 10.6802 14.1667 11.8008 14.1667C12.9228 14.1667 13.7643 13.9896 14.4656 13.7233C15.1668 13.4569 15.7278 13.1042 16.2888 12.75C16.8498 12.3958 17.4108 12.0417 18.1121 11.7753C18.8119 11.5104 19.6534 11.3333 20.7754 11.3333C21.8974 11.3333 22.7389 11.5104 23.4387 11.7768C24.14 12.0417 24.701 12.3958 25.262 12.75C25.823 13.1042 26.384 13.4583 27.0852 13.7247C27.3374 13.8196 27.6151 13.8975 27.9083 13.9669C28.1789 14.9331 28.3333 15.9474 28.3333 17C28.3333 23.2489 23.2489 28.3333 17 28.3333V28.3333Z" fill="black"/>
<path d="M12.0417 19.8333C13.2153 19.8333 14.1667 18.8819 14.1667 17.7083C14.1667 16.5347 13.2153 15.5833 12.0417 15.5833C10.8681 15.5833 9.91669 16.5347 9.91669 17.7083C9.91669 18.8819 10.8681 19.8333 12.0417 19.8333Z" fill="black"/>
<path d="M21.9583 19.8333C23.1319 19.8333 24.0833 18.8819 24.0833 17.7083C24.0833 16.5347 23.1319 15.5833 21.9583 15.5833C20.7847 15.5833 19.8333 16.5347 19.8333 17.7083C19.8333 18.8819 20.7847 19.8333 21.9583 19.8333Z" fill="black"/>
</svg>
